<svg viewBox="0 0 512 512" xmlns="http://www.w3.org/2000/svg"><path d="m346.56 213.73a132.17 132.17 0 0 1 -30.73 85 142.93 142.93 0 0 1 -17.09 17.09 132.84 132.84 0 1 1 47.82-102.1z" fill="#bac2ff"/><path d="m213.72 80.88c-3 0-6 .14-9.06.35a132.83 132.83 0 0 1 93 217.51 142.2 142.2 0 0 1 -17.09 17.09 132 132 0 0 1 -76.46 30.36c3.16.22 6.34.38 9.56.38a132.23 132.23 0 0 0 85-30.74 142.93 142.93 0 0 0 17.09-17.09 132.87 132.87 0 0 0 -102.04-217.85z" fill="#8c9aff"/><circle cx="213.72" cy="213.73" fill="#bac2ff" r="108.69"/><path d="m213.72 105c-3.06 0-6 .21-9.06.46a108.6 108.6 0 0 1 0 216.46c3 .24 6 .45 9.06.45a108.69 108.69 0 1 0 0-217.37z" fill="#8c9aff"/><g fill="#bac2ff"><path d="m338.47 372.71 34.17-34.17 21.13 21.13-34.17 34.17z"/><path d="m372.71 338.54-34.18 34.17-15.53-15.58a12.07 12.07 0 0 1 0-17.08l17-17.05a12.08 12.08 0 0 1 17.09 0z"/><path d="m425.84 417.27-8.57 8.58a18.12 18.12 0 0 1 -25.6 0l-32-32 34.18-34.18 32 32a18.1 18.1 0 0 1 -.01 25.6z"/></g><path d="m425.84 391.67-32-32-9.06 9.06 23 22.94a18.12 18.12 0 0 1 0 25.6l-8.58 8.58a17.86 17.86 0 0 1 -3.74 2.79 18.06 18.06 0 0 0 21.86-2.79l8.57-8.58a18.1 18.1 0 0 0 -.05-25.6z" fill="#8c9aff"/><path d="m222.28 346.19a132.81 132.81 0 0 1 .5-265c-3-.21-6-.35-9.06-.35s-6 .14-9.06.35a132.84 132.84 0 0 0 9.06 265.34c2.89.04 5.72-.16 8.56-.34z" fill="#fff"/><path d="m84 164.36 11.29 4.3a128.56 128.56 0 0 0 -8.4 45.07h-12.05a140.69 140.69 0 0 1 9.16-49.37z" fill="#fff"/><path d="m83.29 195.73a6 6 0 1 1 -.06-12.07h.06a6 6 0 1 1 0 12.07z" fill="#27227d"/><path d="m213.72 328.45a114.73 114.73 0 1 0 -114.72-114.72 114.73 114.73 0 0 0 114.72 114.72zm0-217.37a102.65 102.65 0 1 1 -102.65 102.65 102.65 102.65 0 0 1 102.65-102.65z" fill="#27227d"/><path d="m398.15 355.46v-.06h-.06l-21-21v-.05h-.06l-15.64-15.65a18.59 18.59 0 0 0 -20.53-3.44l-17.05-17.05a138.77 138.77 0 0 0 -110.09-223.36 155.08 155.08 0 0 0 -41.28 6.24 150.63 150.63 0 0 0 -37.52 18.33 139.54 139.54 0 0 0 -50.92 64.94 5.93 5.93 0 0 0 3.57 7.85 6.19 6.19 0 0 0 7.72-3.52 127.42 127.42 0 0 1 46.49-59.3 138.17 138.17 0 0 1 34.22-16.74 143.53 143.53 0 0 1 37.68-5.73 126.81 126.81 0 1 1 -126.76 126.81 6 6 0 0 0 -12.08 0 138.78 138.78 0 0 0 223.37 110.11l17 17a18.13 18.13 0 0 0 3.49 20.56l15.53 15.53v.05h.06l21 21v.06h.06l31.94 31.94a24.18 24.18 0 0 0 34.16 0l8.54-8.54a24.15 24.15 0 0 0 0-34.15zm-51.07 17.24 25.61-25.61 12.6 12.59-25.61 25.62zm-31-65.21 15.45 15.45-8.53 8.57-15.5-15.45q4.46-4.1 8.55-8.55zm11.18 36.83 17.08-17.08a6.05 6.05 0 0 1 8.54 0l11.31 11.31-25.62 25.62-11.3-11.31a6 6 0 0 1 0-8.55zm94.28 68.68-8.54 8.56a12.08 12.08 0 0 1 -17.07 0l-27.72-27.73 25.61-25.61 27.72 27.72a12.08 12.08 0 0 1 0 17.07z" fill="#27227d"/></svg>