<svg height="362.19437" viewBox="0 0 362.22177 362.19437" width="362.22177" xmlns="http://www.w3.org/2000/svg"><path d="m147.44003 271.34002a132.81 132.81 0 0 1 .5-264.9999955c-3-.21-6-.35-9.06-.35s-6 .14-9.06.35a132.84 132.84 0 0 0 9.06 265.3399955c2.89.04 5.72-.16 8.56-.34z" fill="#fff"/><g fill="#27227d"><path d="m9.1600291 89.510025 11.2899999 4.3a128.56 128.56 0 0 0 -8.4 45.069995h-12.04999986a140.69 140.69 0 0 1 9.15999996-49.369995z"/><path d="m8.4500291 120.88002a6.0350746 6.0350746 0 1 1 -.06-12.07h.06a6.035 6.035 0 1 1 0 12.07z"/><path d="m138.88003 253.60002a114.73 114.73 0 1 0 -114.720001-114.72 114.73 114.73 0 0 0 114.720001 114.72zm0-217.369995a102.65 102.65 0 1 1 -102.650001 102.649995 102.65 102.65 0 0 1 102.650001-102.649995z"/><path d="m323.31003 280.61002v-.06h-.06l-21-21v-.05h-.06l-15.64-15.65a18.59 18.59 0 0 0 -20.53-3.44l-17.05-17.05a138.77 138.77 0 0 0 -110.09-223.35999545 155.08 155.08 0 0 0 -41.280001 6.23999995 150.63 150.63 0 0 0 -37.52 18.3300005 139.54 139.54 0 0 0 -50.9199999 64.94 5.93 5.93 0 0 0 3.5699999 7.85 6.19 6.19 0 0 0 7.72-3.52 127.42 127.42 0 0 1 46.49-59.3 138.17 138.17 0 0 1 34.220001-16.74 143.53 143.53 0 0 1 37.68-5.73 126.81 126.81 0 1 1 -126.760001 126.809995 6.04 6.04 0 0 0 -12.07999986 0 138.78 138.78 0 0 0 223.37000086 110.11l17 17a18.13 18.13 0 0 0 3.49 20.56l15.53 15.53v.05h.06l21 21v.06h.06l31.94 31.94a24.18 24.18 0 0 0 34.16 0l8.54-8.54a24.15 24.15 0 0 0 0-34.15zm-51.07 17.24 25.61-25.61 12.6 12.59-25.61 25.62zm-31-65.21 15.45 15.45-8.53 8.57-15.5-15.45q4.46-4.1 8.55-8.55zm11.18 36.83 17.08-17.08a6.05 6.05 0 0 1 8.54 0l11.31 11.31-25.62 25.62-11.3-11.31a6 6 0 0 1 0-8.55zm94.28 68.68-8.54 8.56a12.08 12.08 0 0 1 -17.07 0l-27.72-27.73 25.61-25.61 27.72 27.72a12.08 12.08 0 0 1 0 17.07z"/></g></svg>