<svg height="384.00012" viewBox="0 0 332.8497 384.00012" width="332.8497" xmlns="http://www.w3.org/2000/svg"><g fill-rule="evenodd"><path d="m322.43 273.68013a20 20 0 0 1 -28 4l-76.34-56.88a124.06 124.06 0 0 0 23.81-31.87l76.62 57a19.7 19.7 0 0 1 3.9 27.72z" fill="#c6d8fb"/><path d="m318.52 246.00013-76.62-57c-1.79 3.42-3.76 6.72-5.84 9.94l63.26 47.06a19.76 19.76 0 0 1 -2.41 33.15 20 20 0 0 0 25.52-5.47 19.7 19.7 0 0 0 -3.9-27.72z" fill="#a4c3fd"/><path d="m256.05 131.19013a124.56 124.56 0 0 1 -38 89.61 130 130 0 0 1 -13.21 11.2l-.58.19a18.84 18.84 0 0 0 -5.05-9 19.2 19.2 0 0 0 -32.78 13.62v-12.81a19.2 19.2 0 1 0 -38.4 0v-6.4a19.21 19.21 0 0 0 -38.409999 0v-56.52a20 20 0 0 0 -18.19-20.29 19.2 19.2 0 0 0 -20.21 19.21v67h-.07a124.82 124.82 0 1 1 204.899999-95.76z" fill="#bac2ff"/><path d="m89.620001 198.40013v19.2a19.16 19.16 0 0 1 5.64-13.6 19.65 19.65 0 0 1 4-3 19.13 19.13 0 0 0 -9.64-2.6z" fill="#8c9aff"/><path d="m52.240001 140.79013a19.22 19.22 0 0 0 -20.23 19.21v46.89a126.18 126.18 0 0 0 19.14 20.11h.07v-67a19.19 19.19 0 0 1 9.41-16.5 18.12 18.12 0 0 0 -8.39-2.71z" fill="#8c9aff"/><path d="m131.23 6.3701323c-3.24 0-6.4.25-9.6.49a124.7 124.7 0 0 1 77.26 213.9399977c-.41.39-.85.75-1.28 1.14a16.75 16.75 0 0 1 6.63 10.24l.57-.19a131.17 131.17 0 0 0 13.25-11.2 124.82 124.82 0 0 0 -86.83-214.4199977z" fill="#8c9aff"/><path d="m128.03 204.80013a19.31 19.31 0 0 0 -4.48.58 19.13 19.13 0 0 1 4.48 12.22v6.4a19.15 19.15 0 0 1 5.63-13.57 20 20 0 0 1 4-3 19.16 19.16 0 0 0 -9.62-2.66z" fill="#8c9aff"/><path d="m166.43 217.60013c-.39 0-.75.09-1.13.12a19 19 0 0 1 1.13 6.28v12.81a19.11 19.11 0 0 1 9.6-16.54 19 19 0 0 0 -9.6-2.67z" fill="#8c9aff"/><path d="m204.84 236.81013v76.81a64 64 0 0 1 -64.39 64h-58.189999a64.09 64.09 0 0 1 -63.05-64v-38.41a31.9 31.9 0 0 1 20.1-29.63l11.84-4.74.07-13.89v-66.95a19.2 19.2 0 0 1 20.21-19.21 20 20 0 0 1 18.18 20.29v56.52a19.21 19.21 0 0 1 38.409999 0v6.4a19.2 19.2 0 1 1 38.4 0v12.81a19.2 19.2 0 0 1 32.78-13.57 18.84 18.84 0 0 1 5.05 9 18.32 18.32 0 0 1 .59 4.57z" fill="#e4eaf8"/><path d="m204.26 232.20013a19.12 19.12 0 0 0 -28.24-11.93 18.54 18.54 0 0 1 9 11.93 18.32 18.32 0 0 1 .58 4.61v76.81a64 64 0 0 1 -64.4 64h19.23a64 64 0 0 0 64.39-64v-76.81a18.32 18.32 0 0 0 -.56-4.61z" fill="#fff"/><path d="m38.430001 313.62013v-38.41a31.85 31.85 0 0 1 12.8-25.56l2-40.11a124.71 124.71 0 0 1 87.599999-202.6799977c-3.2-.24-6.36-.49-9.6-.49a124.86 124.86 0 0 0 -80.099999 220.5499977h.09l-.07 13.89-11.84 4.74a31.9 31.9 0 0 0 -20.1 29.66v38.41a64.09 64.09 0 0 0 63.05 64h19.169999a64.08 64.08 0 0 1 -62.999999-64z" fill="#fff"/><path d="m10.930001 78.850132 11.73 5.15a117.36 117.36 0 0 0 -9.85 47.219998h-12.79999981a130.23 130.23 0 0 1 10.91999981-52.369998z" fill="#fff"/><path d="m9.1900012 112.15013a6.4000957 6.4000957 0 0 1 -.07-12.799998h.07a6.4 6.4 0 0 1 0 12.799998z" fill="#27227d"/></g><path d="m131.23.00013233a142.71 142.71 0 0 0 -37.529999 5.50999997 136.48 136.48 0 0 0 -34.38 15.9999997 131.5 131.5 0 0 0 -48.39 57.35 6.35 6.35 0 0 0 3.55 8.52 6.46 6.46 0 0 0 8.18-3.4 118.77 118.77 0 0 1 43.68-51.77 123.55 123.55 0 0 1 31-14.44 130 130 0 0 1 33.879999-5 118.43 118.43 0 0 1 75.53 209.619998 26.12 26.12 0 0 0 -3-3.68 25.56 25.56 0 0 0 -32.43-3.11 25.32 25.32 0 0 0 -40.55-11 25.21 25.21 0 0 0 -34.729999-9v-34.49a26.56 26.56 0 0 0 -24.24-26.69 25.34 25.34 0 0 0 -19 7 25.75 25.75 0 0 0 -8 18.57v52a118.24 118.24 0 0 1 -32-80.83 6.4 6.4 0 1 0 -12.79999981 0 131 131 0 0 0 44.80999981 98.67v6.66l-7.84 3.12a38.09 38.09 0 0 0 -24.17 35.57v38.41a70.82 70.82 0 0 0 69.46 70.41h58.569999a70.41 70.41 0 0 0 70.41-70.41v-76.78c0-.53-.12-1-.15-1.56q3.84-3 7.42-6.16l72.1 53.69a26.49 26.49 0 0 0 36.87-5.22 25.76 25.76 0 0 0 5.12-19.32 26 26 0 0 0 -10.24-17.41l-72.46-53.95a131 131 0 0 0 -118.67-186.87999767zm67.2 313.61999767a57.63 57.63 0 0 1 -58 57.61h-58.099999a57.94 57.94 0 0 1 -56.75-57.61v-38.41a25.37 25.37 0 0 1 16.06-23.68l3.11-1.24v50.53a6.4 6.4 0 0 0 12.8 0v-59.67a2.28 2.28 0 0 0 0-.37v-80.78a12.8 12.8 0 0 1 13.44-12.81 13.64 13.64 0 0 1 12.16 13.92v88.5a6.4 6.4 0 0 0 12.8 0v-32a12.81 12.81 0 0 1 25.609999 0v38.39a6.4 6.4 0 1 0 12.8 0v-32a12.8 12.8 0 1 1 25.6 0v38.41a6.4 6.4 0 1 0 12.8 0v-25.6a12.81 12.81 0 1 1 25.61 0zm116.23-62.55a13.35 13.35 0 0 1 5.25 8.91 13.09 13.09 0 0 1 -2.61 9.85 13.7 13.7 0 0 1 -19 2.68l-70.58-52.51a132.17 132.17 0 0 0 16.13-21.64z" fill="#27227d"/><path d="m38.430001 131.19013a92.84 92.84 0 0 1 47.89-81.189998 6.41 6.41 0 0 0 -6.2-11.21 105.7 105.7 0 0 0 -54.51 92.399998 6.41 6.41 0 0 0 12.81 0z" fill="#27227d" fill-rule="evenodd"/><path d="m108.83 41.000132a6.34 6.34 0 0 0 1.5-.18 89.7 89.7 0 0 1 20.9-2.44 6.4 6.4 0 0 0 0-12.8 101.8 101.8 0 0 0 -23.9 2.8 6.4 6.4 0 0 0 1.5 12.62z" fill="#27227d" fill-rule="evenodd"/></svg>