<svg height="362.194" viewBox="0 0 362.22202 362.194" width="362.22202" xmlns="http://www.w3.org/2000/svg"><g stroke-width=".924893"><path d="m271.66262 138.83891a132.13618 132.12446 0 0 1 -30.72634 84.98472 143.28165 143.26893 0 0 1 -17.08352 17.08204 132.81139 132.79959 0 1 1 47.80986-102.06676z" fill="#bac2ff"/><path d="m138.85124 6.039313c-3.01529 0-6.03982.138729-9.05511.342197a132.81139 132.79959 0 0 1 93.02993 217.44212 143.28165 143.26893 0 0 1 -17.08354 17.08204 131.9882 131.97648 0 0 1 -76.41812 30.34442c3.15404.2312 6.33581.38843 9.55458.38843a132.26568 132.25394 0 0 0 85.00151-30.73285 143.28165 143.26893 0 0 0 17.08355-17.08204 132.83912 132.82734 0 0 0 -102.1128-217.784317z" fill="#8c9aff"/><circle cx="138.85124" cy="138.8389" fill="#bac2ff" r="0"/><path d="m138.85124 30.17797c-3.05229 0-6.03982.21272-9.05511.46243a108.56885 108.55921 0 0 1 0 216.41553c3.01529.24971 6.00282.46243 9.05511.46243a108.67984 108.6702 0 0 0 0-217.34039z" fill="#8c9aff"/><path d="m263.56944 297.76561 34.1671-34.15482 21.12552 21.12364-34.1486 34.16405z" fill="#bac2ff"/><path d="m297.80129 263.60154-34.1671 34.21956-15.57591-15.57452a12.024153 12.023085 0 0 1 0-17.08203l17.08356-17.08203a12.024153 12.023085 0 0 1 17.08354 0z" fill="#bac2ff"/><path d="m350.92953 342.31576-8.57414 8.57339a18.110223 18.108615 0 0 1 -25.60219 0l-31.9935-31.99067 34.17634-34.16405 32.00274 31.99065a18.119472 18.117865 0 0 1 -.01 25.59068z" fill="#bac2ff"/><path d="m350.92953 316.72508-31.99349-31.99065-9.0551 9.05431 22.92911 22.93634a18.119472 18.117865 0 0 1 0 25.59068l-8.57413 8.57339a17.573761 17.572201 0 0 1 -3.74598 2.77455 18.063976 18.062373 0 0 0 21.85619-2.77455l8.57416-8.57339a18.119472 18.117865 0 0 0 .01-25.59068z" fill="#8c9aff"/><path d="m147.40688 271.25009a132.77438 132.7626 0 0 1 .49948-264.86858c-3.0153-.203468-6.01209-.342197-9.05512-.342197-3.04305 0-6.03982.138729-9.05511.342197a132.81139 132.79959 0 0 0 9.05511 265.25701c2.88579 0 5.7161-.20347 8.55564-.38843z" fill="#fff"/><path d="m9.193879 89.47953 11.274955 4.30057a128.86192 128.85047 0 0 0 -8.389159 45.05881h-12.07964795a140.71034 140.69784 0 0 1 9.19385195-49.35938z" fill="#fff"/><path d="m8.453931 120.85054a6.0399128 6.0393768 0 0 1 -.06474-12.07858h.06474a6.0398264 6.03929 0 0 1 0 12.07858z" fill="#27227d"/><path d="m138.85124 253.52065a114.69191 114.68173 0 1 0 -114.691915-114.68174 114.69191 114.68173 0 0 0 114.691915 114.68174zm0-217.34038a102.66777 102.65865 0 1 1 -102.66777 102.65864 102.66777 102.65865 0 0 1 102.66777-102.62165z" fill="#27227d"/><path d="m323.23699 280.5171v-.0555h-.0556l-21.07926-21.06815v-.0555h-.0463l-15.52964-15.52821a18.58194 18.58029 0 0 0 -20.52431-3.4312l-17.08348-17.08205a138.74022 138.72789 0 0 0 -110.06716-223.29646299 155.13007 155.11629 0 0 0 -41.2706 6.24275499 150.00593 149.99261 0 0 0 -37.51536 18.32133 139.52642 139.51403 0 0 0 -50.871401 64.915418 5.9195828 5.9190572 0 0 0 3.588748 7.85201 6.1878138 6.1872645 0 0 0 7.713956-3.5237 127.49301 127.4817 0 0 1 46.487207-59.28306 138.03728 138.02502 0 0 1 34.22259-16.721339 143.17066 143.15795 0 0 1 37.6726-5.734088 126.78081 126.76956 0 1 1 -126.799305 126.769557 6.0398244 6.039288 0 0 0 -12.07964795 0 138.74022 138.72789 0 0 0 223.31625295 110.05748l17.0003 17.00804a18.091725 18.090119 0 0 0 3.49625 20.55022l15.52041 15.52828v.0555h.0554l21.04227 21.0404v.0463h.0555l31.975 32.00915a24.187045 24.184897 0 0 0 34.15785 0l8.52789-8.53638a24.140798 24.138655 0 0 0 0-34.14556zm-51.05641 17.23926 25.61146-25.59993 12.58835 12.58725-25.61144 25.60916zm-31.0223-65.19287 15.4464 15.45428-8.5464 8.56414-15.44641-15.44503q4.44894-4.09711 8.54641-8.55491zm11.18245 36.82764 17.0743-17.08205a6.0305749 6.0300395 0 0 1 8.53715 0l11.3027 11.30171-25.61144 25.60917-11.30271-11.29244a6.0490736 6.0485366 0 0 1 0-8.54565zm94.28786 68.64256-8.56489 8.61037a12.024153 12.023085 0 0 1 -17.06505 0l-27.74805-27.74558 25.68544-25.6184 27.74804 27.74556a12.024153 12.023085 0 0 1 0 17.07279z" fill="#27227d"/><path d="m141.95902 91.4772h67.09477a2.5805681 2.580339 0 0 1 2.58057 2.58035v7.74101a2.5805681 2.580339 0 0 1 -2.58057 2.58035h-67.09477a2.5805681 2.580339 0 0 1 -2.58983-2.58035v-7.74101a2.5805681 2.580339 0 0 1 2.58983-2.58035z" fill="#8c9aff"/><path d="m141.95902 119.86093h67.09477a2.5805681 2.580339 0 0 1 2.58057 2.58035v7.78724a2.5805681 2.580339 0 0 1 -2.58057 2.58036h-67.09477a2.5805681 2.580339 0 0 1 -2.58983-2.58036v-7.741a2.5805681 2.580339 0 0 1 2.58983-2.62659z" fill="#8c9aff"/><path d="m141.95902 148.24467h67.09477a2.5805681 2.580339 0 0 1 2.58057 2.58033v7.75027a2.5805681 2.580339 0 0 1 -2.58057 2.58035h-67.09477a2.5805681 2.580339 0 0 1 -2.58983-2.58035v-7.75027a2.5805681 2.580339 0 0 1 2.58983-2.58033z" fill="#8c9aff"/><path d="m141.95902 176.63765h67.09477a2.5805681 2.580339 0 0 1 2.58982 2.60808v7.74101a2.5805681 2.580339 0 0 1 -2.58056 2.58035h-67.10403a2.5805681 2.580339 0 0 1 -2.58983-2.58035v-7.74101a2.5805681 2.580339 0 0 1 2.58983-2.60808z" fill="#8c9aff"/><path d="m124.45924 109.53958h-8.62038a2.4603265 2.4601081 0 0 0 -2.27534 2.58033v15.48205a2.4418278 2.441611 0 0 1 -2.2661 2.58032h-16.05687v-48.51775a2.1365994 2.1364096 0 0 1 1.34116.47167l29.16321 22.70513a2.6453136 2.6450787 0 0 1 -1.28568 4.69825z" fill="#8c9aff"/><path d="m125.74492 176.17522-29.16321 22.70512a2.12735 2.1271611 0 0 1 -1.34116.46242v-48.51776h16.05687a2.4510772 2.4508595 0 0 1 2.2661 2.58034v15.49129a2.4603265 2.4601081 0 0 0 2.27534 2.58033h8.62038a2.6453136 2.6450787 0 0 1 1.28568 4.69826z" fill="#8c9aff"/><path d="m141.95902 91.4772h59.61204a2.5805681 2.580339 0 0 1 2.58057 2.58035v7.74101a2.5805681 2.580339 0 0 1 -2.58057 2.58035h-59.61204a2.5805681 2.580339 0 0 1 -2.58983-2.58035v-7.74101a2.5805681 2.580339 0 0 1 2.58983-2.58035z" fill="#bac2ff"/><path d="m141.95902 119.86093h59.61204a2.5805681 2.580339 0 0 1 2.58057 2.58035v7.78724a2.5805681 2.580339 0 0 1 -2.58057 2.58036h-59.61204a2.5805681 2.580339 0 0 1 -2.58983-2.58036v-7.741a2.5805681 2.580339 0 0 1 2.58983-2.62659z" fill="#bac2ff"/><path d="m141.95902 148.24467h59.61204a2.5805681 2.580339 0 0 1 2.58057 2.58033v7.75027a2.5805681 2.580339 0 0 1 -2.58057 2.58035h-59.61204a2.5805681 2.580339 0 0 1 -2.58983-2.58035v-7.75027a2.5805681 2.580339 0 0 1 2.58983-2.58033z" fill="#bac2ff"/><path d="m141.95902 176.63765h59.61204a2.5805681 2.580339 0 0 1 2.58057 2.60808v7.74101a2.5805681 2.580339 0 0 1 -2.58057 2.58035h-59.61204a2.5805681 2.580339 0 0 1 -2.58983-2.58035v-7.74101a2.5805681 2.580339 0 0 1 2.58983-2.60808z" fill="#bac2ff"/><path d="m118.22519 104.84133-23.02162-17.93289v-5.24391a2.3678331 2.3676228 0 0 0 -1.15618.41619l-30.97606 22.70513a2.6545628 2.6543272 0 0 0 1.23941 4.75373h8.23191a2.469576 2.4693566 0 0 1 2.27534 2.58033v15.48205a2.4418278 2.441611 0 0 0 2.26611 2.58032h26.68436a2.4418278 2.441611 0 0 0 2.27534-2.58032v-15.48205a2.4510772 2.4508595 0 0 1 2.26609-2.58033h8.62963a2.6453136 2.6450787 0 0 0 1.28567-4.69825z" fill="#bac2ff"/><path d="m119.15013 173.40067a2.6360642 2.6358302 0 0 0 -2.19209-1.92371h-8.62966a2.4510772 2.4508595 0 0 1 -2.26609-2.58033v-15.49129a2.4603265 2.4601081 0 0 0 -2.27533-2.58034h-26.66588a2.4510772 2.4508595 0 0 0 -2.26609 2.58034v15.49129a2.469576 2.4693566 0 0 1 -2.27533 2.58033h-8.23193a2.6453136 2.6450787 0 0 0 -1.2394 4.74451l30.97607 22.71437a2.2660903 2.2658891 0 0 0 1.15615.40692v-5.23465l22.98464-17.93289a2.6545628 2.6543272 0 0 0 .92494-2.77455z" fill="#bac2ff"/><path d="m64.34773 109.53958h7.74172a2.6545628 2.6543272 0 0 1 -1.23942-4.75373l28.23826-20.69822-2.50658-1.95143a2.1365994 2.1364096 0 0 0 -1.34116-.47167 2.3678331 2.3676228 0 0 0 -1.15615.41619l-30.97607 22.70513a2.6545628 2.6543272 0 0 0 1.2394 4.75373z" fill="#fff"/><path d="m63.10833 176.22147 30.97607 22.71437a2.2660903 2.2658891 0 0 0 1.15615.40692 2.12735 2.1271611 0 0 0 1.34116-.46242l2.50658-1.95143-28.23826-20.70744a2.6453136 2.6450787 0 0 1 1.23942-4.74451h-7.74172a2.6453136 2.6450787 0 0 0 -1.2394 4.74451z" fill="#fff"/><path d="m80.30286 109.53958h-7.74169a2.469576 2.4693566 0 0 1 2.27533 2.58033v15.48205a2.4418278 2.441611 0 0 0 2.26608 2.58032h7.74171a2.4418278 2.441611 0 0 1 -2.26608-2.58032v-15.48205a2.4603265 2.4601081 0 0 0 -2.27535-2.58033z" fill="#fff"/><path d="m82.5967 168.89663v-15.49129a2.4510772 2.4508595 0 0 1 2.26609-2.58034h-7.74171a2.4510772 2.4508595 0 0 0 -2.26609 2.58034v15.49129a2.469576 2.4693566 0 0 1 -2.27533 2.58033h7.7232a2.4603265 2.4601081 0 0 0 2.29384-2.58033z" fill="#fff"/><path d="m92.54899 201.00751-27.04509-19.83809-3.91247-2.86705 3.05229-4.16183 3.91247 2.86705 27.0451 19.81034z" fill="#fff"/><g fill="#27227d"><path d="m209.05379 88.89686h-67.09477a5.1611361 5.160678 0 0 0 -5.1704 5.16069v7.74101a5.1611361 5.160678 0 0 0 5.1704 5.16068h67.09477a5.1611361 5.160678 0 0 0 5.16113-5.16068v-7.74101a5.1611361 5.160678 0 0 0 -5.16113-5.16069zm-67.09477 12.9017v-7.74101h67.09477v7.74101z"/><path d="m209.05379 117.2806h-67.09477a5.1611361 5.160678 0 0 0 -5.1704 5.16068v7.78724a5.1611361 5.160678 0 0 0 5.1704 5.1607h67.09477a5.1611361 5.160678 0 0 0 5.16113-5.1607v-7.741a5.1611361 5.160678 0 0 0 -5.16113-5.20692zm-67.09477 12.94792v-7.741h67.09477v7.741z"/><path d="m209.05379 145.66433h-67.09477a5.1611361 5.160678 0 0 0 -5.1704 5.16067v7.75027a5.1611361 5.160678 0 0 0 5.1704 5.16069h67.09477a5.1611361 5.160678 0 0 0 5.16113-5.16069v-7.75027a5.1611361 5.160678 0 0 0 -5.16113-5.16067zm-67.09477 12.94793v-7.75026h67.09477v7.75026z"/><path d="m209.05379 174.05731h-67.09477a5.1611361 5.160678 0 0 0 -5.1704 5.16067v7.74102a5.1611361 5.160678 0 0 0 5.1704 5.16067h67.09477a5.1611361 5.160678 0 0 0 5.16113-5.16067v-7.71327a5.1611361 5.160678 0 0 0 -5.16113-5.18842zm-67.09477 12.90169v-7.71327h67.09477v7.74101z"/><path d="m59.76007 108.67021a4.8189104 4.8184825 0 0 0 4.62467 3.4497h7.92669v15.48205a5.0131466 5.0127016 0 0 0 4.85591 5.16067h34.12083a5.0131466 5.0127016 0 0 0 4.85592-5.16067v-15.48205h8.27816a4.8374091 4.8369796 0 0 0 4.55993-3.3757 5.3276244 5.3271514 0 0 0 -1.68338-5.93755l-29.13544-22.70513a4.6801701 4.6797546 0 0 0 -5.62362-.0832l-30.97605 22.70513a5.3276244 5.3271514 0 0 0 -1.80362 5.9468zm4.90214-1.80345 30.6431-22.48317 28.83022 22.45542a.22198435.22196464 0 0 1 0 .11097h-8.32441a5.0316453 5.0311987 0 0 0 -4.86517 5.16993v15.48205h-33.51039v-15.48205a5.022396 5.0219501 0 0 0 -4.86515-5.16067h-7.92669a.37922327.3791896 0 0 1 0-.10172z"/><path d="m61.57293 178.32087 3.91247 2.86705 2.0811 1.52601a2.5807281 2.580499 0 0 0 3.05231-4.16184l-2.08112-1.526-3.88472-2.84855a.18498696.18497054 0 0 1 0-.10174h7.91744a5.0316453 5.0311987 0 0 0 4.86515-5.16068v-15.49128h33.52888v15.49128a5.0316453 5.0311987 0 0 0 4.86516 5.16068h8.32443v.0925l-28.84872 22.47393-8.01919-5.88206a2.580718 2.5804889 0 0 0 -3.05229 4.16183l8.32441 6.10403a4.6894195 4.6890032 0 0 0 5.62361-.074l29.1632-22.7144a5.3276244 5.3271514 0 0 0 1.68338-5.93754 4.8374091 4.8369796 0 0 0 -4.56919-3.38497h-8.3244v-15.50978a5.0131466 5.0127016 0 0 0 -4.85591-5.16067h-34.14859a5.0131466 5.0127016 0 0 0 -4.85592 5.16067v15.49129h-7.89894a4.809661 4.8092341 0 0 0 -4.62466 3.4497 5.2998764 5.2994058 0 0 0 1.82211 5.97454z"/><path d="m77.0286 184.15671a2.6360642 2.6358302 0 0 0 -.92494.36992 2.7193083 2.719067 0 0 0 -.7492.6659 2.5805681 2.580339 0 0 0 2.47882 4.08784l.48097-.12946a2.0903527 2.0901671 0 0 0 .45322-.23122 1.7943735 1.7942142 0 0 0 .40697-.2867 3.348264 3.3479668 0 0 0 .33298-.38845 2.7100589 2.7098184 0 0 0 .48097-1.91444 2.6545628 2.6543272 0 0 0 -2.95979-2.16415z"/></g></g></svg>