<svg height="327.19238" viewBox="0 0 327.22809 327.19238" width="327.22809" xmlns="http://www.w3.org/2000/svg"><path d="m163.63084 5.8423074a157 157 0 0 0 -84.69 24.6999996 5.58 5.58 0 0 1 -1.4 6.55c-6.18 5.9-9.1 14-14.45 20.58a71.93 71.93 0 0 1 -23.35 16.93 6.09 6.09 0 0 1 -6.22-.19 157.74 157.74 0 1 0 130.11-68.5699996z" fill="#8c9aff"/><path d="m146.10084 5.8423074c-2.25 0-4.49.08-6.72.17-5.2 10.6199996-16.89 12.9999996-27.87 13.6099996-4.07.21-10.61-.46-16.91-.27a6.45 6.45 0 0 1 -1.48 4.6 24.58 24.58 0 0 1 -9.78 6.78 6.44 6.44 0 0 1 -2.7 5.4 151 151 0 0 1 -13.49 8.62 5.93 5.93 0 0 1 -1.3 6.46 12.23 12.23 0 0 0 -2.76 6.95 6.36 6.36 0 0 1 -7.77 4.42 5.76 5.76 0 0 1 -3.07-2.16 38.28 38.28 0 0 0 -6.35 7c-2 3.26-2.43 7.31-5.29 10.13a7.39 7.39 0 0 1 -10.93.23c-7.84 10-11.28 27.870003-15.36 38.620003q-2.81 7.36-5.7899997 14.64c.47 11.22-3.29 21.67-3.64 33a5.89 5.89 0 0 1 -.32 1.38c4.46 24.38 8.2899997 47.31 24.2299997 69.68 8.39 11.78 12.58 24.3 20 36.37 9.06 14.71 25.86 21.71 39.61 31.24a6.3 6.3 0 0 1 2.83 4.34c6.36 3.25 12.85 6.25 19.08 9.77a6 6 0 0 1 .6.43 157.71 157.71 0 1 0 35.18-311.4100026z" fill="#bac2ff"/><path d="m166.55084 321.60231c2.94 0 5.86-.09 8.76-.25-83-4.55-151.91-67.73-151.91-151.91a157.76 157.76 0 0 1 149-157.500003c-2.9-.16-5.82-.25-8.76-.25a157.75 157.75 0 0 0 -157.7599997 157.750003c0 87.16 73.5499997 152.16 160.6699997 152.16z" fill="#fff"/><g fill="#27227d"><path d="m233.74084 105.17231h-140.22a5.85 5.85 0 1 1 0-11.690003h140.22a5.85 5.85 0 0 1 0 11.690003z"/><path d="m233.74084 169.44231h-140.22a5.85 5.85 0 1 1 0-11.69h140.22a5.85 5.85 0 0 1 0 11.69z"/><path d="m233.74084 233.71231h-140.22a5.85 5.85 0 1 1 0-11.69h140.22a5.85 5.85 0 0 1 0 11.69z"/><path d="m163.63084 327.19231a163.61 163.61 0 0 1 -131.79-260.590003 5.85 5.85 0 1 1 9.41 6.94 151.91 151.91 0 0 0 224.43 202.580003 5.8441873 5.8441873 0 1 1 7.85 8.66 163.22 163.22 0 0 1 -109.9 42.41z"/><path d="m298.53084 251.24231a5.84 5.84 0 0 1 -5-8.88 151.93 151.93 0 0 0 -218-202.540003 5.8437745 5.8437745 0 0 1 -6.78-9.52 163.62 163.62 0 0 1 234.78 218.130003 5.83 5.83 0 0 1 -5 2.81z"/><circle cx="52.620846" cy="52.582302" r="5.84"/><circle cx="286.32083" cy="262.9223" r="5.84"/></g></svg>