<svg height="327.19" viewBox="0 0 327.23 327.19" width="327.23" xmlns="http://www.w3.org/2000/svg"><path d="m163.63 5.8423a157 157 0 0 0 -84.69 24.7 5.58 5.58 0 0 1 -1.4 6.55c-6.18 5.9-9.1 14-14.45 20.58a71.93 71.93 0 0 1 -23.35 16.93 6.09 6.09 0 0 1 -6.22-.19 157.74 157.74 0 1 0 130.11-68.57z" fill="#8c9aff"/><path d="m146.1 5.8423c-2.25 0-4.49.08-6.72.17-5.2 10.62-16.89 13-27.87 13.61-4.07.21-10.61-.46-16.91-.27a6.45 6.45 0 0 1 -1.48 4.6 24.58 24.58 0 0 1 -9.78 6.78 6.44 6.44 0 0 1 -2.7 5.4 151 151 0 0 1 -13.49 8.62 5.93 5.93 0 0 1 -1.3 6.46 12.23 12.23 0 0 0 -2.76 6.95 6.36 6.36 0 0 1 -7.77 4.42 5.76 5.76 0 0 1 -3.07-2.16 38.28 38.28 0 0 0 -6.35 7c-2 3.26-2.43 7.31-5.29 10.13a7.39 7.39 0 0 1 -10.93.23c-7.84 10-11.28 27.87-15.36 38.62q-2.81 7.36-5.79 14.64c.47 11.22-3.29 21.67-3.64 33a5.89 5.89 0 0 1 -.32 1.38c4.46 24.38 8.29 47.31 24.23 69.68 8.39 11.78 12.58 24.3 20 36.37 9.06 14.71 25.86 21.71 39.61 31.24a6.3 6.3 0 0 1 2.83 4.34c6.36 3.25 12.85 6.25 19.08 9.77a6 6 0 0 1 .6.43 157.71 157.71 0 1 0 35.18-311.41z" fill="#bac2ff"/><path d="m166.55 321.6c2.94 0 5.86-.09 8.76-.25-83-4.55-151.91-67.73-151.91-151.91a157.76 157.76 0 0 1 149-157.5c-2.9-.16-5.82-.25-8.76-.25a157.75 157.75 0 0 0 -157.76 157.75c0 87.16 73.55 152.16 160.67 152.16z" fill="#fff"/><g fill="#27227d"><path d="m163.63 327.19a163.61 163.61 0 0 1 -131.79-260.59 5.85 5.85 0 1 1 9.41 6.94 151.91 151.91 0 0 0 224.43 202.58 5.8442 5.8442 0 1 1 7.85 8.66 163.22 163.22 0 0 1 -109.9 42.41z"/><path d="m298.53 251.24a5.84 5.84 0 0 1 -5-8.88 151.93 151.93 0 0 0 -218-202.54 5.8438 5.8438 0 0 1 -6.78-9.52 163.62 163.62 0 0 1 234.78 218.13 5.83 5.83 0 0 1 -5 2.81z"/><circle cx="52.621" cy="52.582" r="5.84"/><circle cx="286.32" cy="262.92" r="5.84"/></g><text fill="#8c9aff" font-family="sans-serif" font-size="179.1" stroke="#8c9aff" stroke-width="4.4776" transform="matrix(1.11596253 0 0 1.05659442 -1.954698 -5.377474)" x="114.78836" y="225.31958"><tspan fill="#8c9aff" stroke="#8c9aff" stroke-width="4.4776" x="114.78836" y="225.31958">?</tspan></text><text fill="#27227d" font-family="sans-serif" font-size="179.1" stroke="#27227d" stroke-width="4.4776" transform="matrix(1.11596253 0 0 1.05659442 -1.954698 -5.377474)" x="106.7195" y="221.68501"><tspan fill="#27227d" stroke="#27227d" stroke-width="4.4776" x="106.7195" y="221.68501">?</tspan></text><text transform="matrix(1.004654955 0 0 .96123744 9.3748032 9.801692)"/></svg>