<svg height="327.19" viewBox="0 0 327.23 327.19" width="327.23" xmlns="http://www.w3.org/2000/svg"><path d="m163.63 5.8423a157 157 0 0 0 -84.69 24.7 5.58 5.58 0 0 1 -1.4 6.55c-6.18 5.9-9.1 14-14.45 20.58a71.93 71.93 0 0 1 -23.35 16.93 6.09 6.09 0 0 1 -6.22-.19 157.74 157.74 0 1 0 130.11-68.57z" fill="#8c9aff"/><path d="m146.1 5.8423c-2.25 0-4.49.08-6.72.17-5.2 10.62-16.89 13-27.87 13.61-4.07.21-10.61-.46-16.91-.27a6.45 6.45 0 0 1 -1.48 4.6 24.58 24.58 0 0 1 -9.78 6.78 6.44 6.44 0 0 1 -2.7 5.4 151 151 0 0 1 -13.49 8.62 5.93 5.93 0 0 1 -1.3 6.46 12.23 12.23 0 0 0 -2.76 6.95 6.36 6.36 0 0 1 -7.77 4.42 5.76 5.76 0 0 1 -3.07-2.16 38.28 38.28 0 0 0 -6.35 7c-2 3.26-2.43 7.31-5.29 10.13a7.39 7.39 0 0 1 -10.93.23c-7.84 10-11.28 27.87-15.36 38.62q-2.81 7.36-5.79 14.64c.47 11.22-3.29 21.67-3.64 33a5.89 5.89 0 0 1 -.32 1.38c4.46 24.38 8.29 47.31 24.23 69.68 8.39 11.78 12.58 24.3 20 36.37 9.06 14.71 25.86 21.71 39.61 31.24a6.3 6.3 0 0 1 2.83 4.34c6.36 3.25 12.85 6.25 19.08 9.77a6 6 0 0 1 .6.43 157.71 157.71 0 1 0 35.18-311.41z" fill="#bac2ff"/><path d="m166.55 321.6c2.94 0 5.86-.09 8.76-.25-83-4.55-151.91-67.73-151.91-151.91a157.76 157.76 0 0 1 149-157.5c-2.9-.16-5.82-.25-8.76-.25a157.75 157.75 0 0 0 -157.76 157.75c0 87.16 73.55 152.16 160.67 152.16z" fill="#fff"/><g fill="#27227d"><path d="m163.63 327.19a163.61 163.61 0 0 1 -131.79-260.59 5.85 5.85 0 1 1 9.41 6.94 151.91 151.91 0 0 0 224.43 202.58 5.8442 5.8442 0 1 1 7.85 8.66 163.22 163.22 0 0 1 -109.9 42.41z"/><path d="m298.53 251.24a5.84 5.84 0 0 1 -5-8.88 151.93 151.93 0 0 0 -218-202.54 5.8438 5.8438 0 0 1 -6.78-9.52 163.62 163.62 0 0 1 234.78 218.13 5.83 5.83 0 0 1 -5 2.81z"/><circle cx="52.621" cy="52.582" r="5.84"/><circle cx="286.32" cy="262.92" r="5.84"/></g><path d="m139.86236 184.48478q0-6.8058 1.2537-11.6415 1.4328-5.0148 4.6566-9.4923 3.4029-4.4775 9.1341-9.3132 6.9849-5.9103 10.746-9.8505 3.9402-3.9402 5.5521-7.7013 1.6119-3.7611 1.6119-9.1341 0-8.5968-5.5521-13.2534-5.5521-4.6566-16.119-4.6566-8.7759 0-15.5817 2.3283-6.8058 2.1492-13.0743 5.1939l-5.5521-12.537q7.164-3.7611 15.7608-6.268504 8.7759-2.5074 19.5219-2.5074 17.0145 0 26.3277 8.417704 9.3132 8.4177 9.3132 22.9248 0 8.0595-2.6865 13.7907-2.5074 5.5521-7.3431 10.3878-4.6566 4.6566-11.1042 10.0296-5.9103 5.0148-9.1341 8.7759-3.0447 3.7611-4.1193 7.5222-1.0746 3.582-1.0746 8.7759v3.0447h-12.537zm-4.1193 31.1634q0-6.6267 3.0447-9.3132 3.2238-2.6865 8.0595-2.6865 4.4775 0 7.7013 2.6865 3.2238 2.6865 3.2238 9.3132 0 6.4476-3.2238 9.3132-3.2238 2.8656-7.7013 2.8656-4.8357 0-8.0595-2.8656-3.0447-2.8656-3.0447-9.3132z" fill="#8c9aff" stroke="#8c9aff" stroke-width="4.4776" transform="matrix(1.33781193913 0 0 1.26434505505 -28.00354658405 -38.60132845417)"/><path d="m131.7935 180.85021q0-6.8058 1.2537-11.6415 1.4328-5.0148 4.6566-9.4923 3.4029-4.4775 9.1341-9.3132 6.9849-5.9103 10.746-9.8505 3.9402-3.9402 5.5521-7.7013 1.6119-3.7611 1.6119-9.1341 0-8.5968-5.5521-13.2534-5.5521-4.6566-16.119-4.6566-8.7759 0-15.5817 2.3283-6.8058 2.1492-13.0743 5.1939l-5.5521-12.537q7.164-3.761101 15.7608-6.268502 8.7759-2.5074 19.5219-2.5074 17.0145 0 26.3277 8.417702 9.3132 8.4177 9.3132 22.9248 0 8.0595-2.6865 13.7907-2.5074 5.5521-7.3431 10.3878-4.6566 4.6566-11.1042 10.0296-5.9103 5.0148-9.1341 8.7759-3.0447 3.7611-4.1193 7.5222-1.0746 3.582-1.0746 8.7759v3.0447h-12.537zm-4.1193 31.1634q0-6.6267 3.0447-9.3132 3.2238-2.6865 8.0595-2.6865 4.4775 0 7.7013 2.6865 3.2238 2.6865 3.2238 9.3132 0 6.4476-3.2238 9.3132-3.2238 2.8656-7.7013 2.8656-4.8357 0-8.0595-2.8656-3.0447-2.8656-3.0447-9.3132z" fill="#27227d" stroke="#27227d" stroke-width="4.4776" transform="matrix(1.33781193913 0 0 1.26434505505 -28.00354658405 -38.60132845417)"/><text transform="matrix(1.00465495 0 0 .96123744 9.374803 9.801692)"/></svg>