<svg height="327.20001" viewBox="0 0 327.20001 327.20001" width="327.20001" xmlns="http://www.w3.org/2000/svg"><circle cx="163.60001" cy="157.31001" fill="#8c9aff" r="157.3"/><ellipse cx="163.60001" cy="157.31001" fill="#bac2ff" rx="138.42999" ry="157.3"/><path d="m25.17 157.31c0-86.88 62-157.31 138.43-157.31a157.31 157.31 0 0 0 0 314.6c-76.45 0-138.43-70.42-138.43-157.29z" fill="#fff"/><g fill="#27227d"><path d="m163.6 327.2a163.6 163.6 0 1 1 163.6-163.6 163.6 163.6 0 0 1 -163.6 163.6zm0-314.6a151 151 0 1 0 151 151 151 151 0 0 0 -151-151z"/><path d="m106.97 226.52a6.29 6.29 0 0 1 -4.45-10.74l113.26-113.26a6.2932504 6.2932504 0 1 1 8.9 8.9l-113.26 113.26a6.29 6.29 0 0 1 -4.45 1.84z"/><path d="m220.23 226.52a6.29 6.29 0 0 1 -4.45-1.84l-113.26-113.26a6.2932504 6.2932504 0 0 1 8.9-8.9l113.26 113.26a6.29 6.29 0 0 1 -4.45 10.74z"/></g></svg>