<svg viewBox="0 0 512 512" xmlns="http://www.w3.org/2000/svg"><rect fill="#bac2ff" height="478.44" rx="41.24" width="478.44" x="16.78" y="16.78"/><path d="m495.22 454v-24.77a41.24 41.24 0 0 1 -41.22 41.24h-396a41.24 41.24 0 0 1 -41.25-41.23v24.76a41.25 41.25 0 0 0 41.25 41.22h396a41.24 41.24 0 0 0 41.22-41.22z" fill="#8c9aff"/><path d="m211.87 140.52h217.36a16.5 16.5 0 0 0 0-33h-346.46a16.5 16.5 0 1 0 0 33z" fill="#bac2ff"/><circle cx="165.26" cy="124.02" fill="#bac2ff" r="49.49"/><path d="m214.76 124a49.75 49.75 0 0 0 -1.65-12.38 49.43 49.43 0 0 1 -95.74 0 49.5 49.5 0 1 0 97.39 12.38z" fill="#8c9aff"/><path d="m211.87 404.48h217.36a16.5 16.5 0 0 0 0-33h-346.46a16.5 16.5 0 1 0 0 33z" fill="#bac2ff"/><circle cx="165.26" cy="387.98" fill="#bac2ff" r="49.49"/><path d="m214.76 388a49.67 49.67 0 0 0 -1.65-12.37 49.43 49.43 0 0 1 -95.74 0 49.49 49.49 0 1 0 97.39 12.37z" fill="#8c9aff"/><path d="m300.13 239.5h-217.36a16.5 16.5 0 1 0 0 33h346.46a16.5 16.5 0 0 0 0-33z" fill="#bac2ff"/><circle cx="346.74" cy="256" fill="#bac2ff" r="49.49"/><path d="m396.23 256a49.21 49.21 0 0 0 -1.65-12.37 49.43 49.43 0 0 1 -95.74 0 49.49 49.49 0 1 0 97.39 12.37z" fill="#8c9aff"/><path d="m16.78 58v24.77a41.24 41.24 0 0 1 41.22-41.24h396a41.24 41.24 0 0 1 41.25 41.23v-24.76a41.25 41.25 0 0 0 -41.25-41.22h-396a41.24 41.24 0 0 0 -41.22 41.22z" fill="#fff"/><path d="m454 8.53v16.47h-66v-16.47z" fill="#fff"/><g fill="#27227d"><circle cx="420.98" cy="16.78" r="8.25"/><path d="m8.53 58v396a49.55 49.55 0 0 0 49.47 49.47h396a49.55 49.55 0 0 0 49.5-49.47v-396a49.56 49.56 0 0 0 -49.5-49.47 8.25 8.25 0 0 0 0 16.47 33 33 0 0 1 33 33v396a33 33 0 0 1 -33 33h-396a33 33 0 0 1 -33-33v-396a33 33 0 0 1 33-33h330a8.25 8.25 0 0 0 0-16.5h-330a49.56 49.56 0 0 0 -49.47 49.5z"/><path d="m446.62 141.55a24.27 24.27 0 0 0 7.38-17.55 24.75 24.75 0 0 0 -24.74-24.75h-211.91a57.62 57.62 0 0 0 -104.18 0h-30.4a24.75 24.75 0 0 0 0 49.49h30.4a57.61 57.61 0 0 0 104.18 0h211.88a24.13 24.13 0 0 0 17.39-7.21zm-17.39-25.78a8.25 8.25 0 0 1 8.25 8.25 8 8 0 0 1 -2.53 5.87 7.89 7.89 0 0 1 -5.72 2.38h-206.89a51.89 51.89 0 0 0 0-16.5zm-346.46 16.5a8.25 8.25 0 1 1 0-16.5h25.41a51.89 51.89 0 0 0 0 16.5zm82.49 33a41.25 41.25 0 1 1 41.25-41.27 41.25 41.25 0 0 1 -41.25 41.27z"/><path d="m446.62 405.52a24.24 24.24 0 0 0 7.38-17.52 24.74 24.74 0 0 0 -24.74-24.74h-211.91a57.61 57.61 0 0 0 -104.18 0h-30.4a24.75 24.75 0 0 0 0 49.49h30.4a57.62 57.62 0 0 0 104.18 0h211.88a24.13 24.13 0 0 0 17.39-7.21zm-17.39-25.79a8.27 8.27 0 0 1 8.25 8.25 8.09 8.09 0 0 1 -2.53 5.88 7.93 7.93 0 0 1 -5.72 2.37h-206.89a51.89 51.89 0 0 0 0-16.5zm-346.46 16.5a8.25 8.25 0 1 1 0-16.5h25.41a51.89 51.89 0 0 0 0 16.5zm82.49 33a41.25 41.25 0 1 1 41.25-41.23 41.24 41.24 0 0 1 -41.25 41.23z"/><path d="m454 256a24.75 24.75 0 0 0 -24.74-24.75h-30.4a57.62 57.62 0 0 0 -104.18 0h-211.91a24.75 24.75 0 1 0 0 49.5h211.88a57.62 57.62 0 0 0 104.18 0h30.4a24.75 24.75 0 0 0 24.77-24.75zm-24.74-8.25a8.25 8.25 0 0 1 0 16.5h-25.44a51.89 51.89 0 0 0 0-16.5zm-346.49 16.5a8 8 0 0 1 -5.87-2.53 7.89 7.89 0 0 1 -2.38-5.72 8.25 8.25 0 0 1 8.25-8.25h206.89a51.89 51.89 0 0 0 0 16.5zm264 33a41.24 41.24 0 1 1 41.23-41.25 41.24 41.24 0 0 1 -41.23 41.25z"/></g></svg>