<svg height="125.8438" viewBox="0 0 125.8492 125.8438" width="125.8492" xmlns="http://www.w3.org/2000/svg"><path d="m-.000007.000549h125.8492v125.84325h-125.8492z" fill="none"/><g fill="#27227d" transform="translate(-193.0754 -193.0762)"><path d="m199.37 318.92a6.29 6.29 0 0 1 -4.45-10.74l113.26-113.26a6.2932504 6.2932504 0 1 1 8.9 8.9l-113.26 113.26a6.29 6.29 0 0 1 -4.45 1.84z"/><path d="m312.63 318.92a6.29 6.29 0 0 1 -4.45-1.84l-113.26-113.26a6.2932504 6.2932504 0 0 1 8.9-8.9l113.26 113.26a6.29 6.29 0 0 1 -4.45 10.74z"/></g></svg>